<svg width="8" height="16" viewBox="0 0 8 16" fill="none" xmlns="http://www.w3.org/2000/svg">
<path d="M4.84757 3.81794C4.84757 3.98169 4.84757 4.51541 4.84757 5.27366H7.45457L7.17191 7.59763H4.84757C4.84757 11.1816 4.84757 15.9843 4.84757 15.9843H1.76238C1.76238 15.9843 1.76238 11.2452 1.76238 7.59763H0.154785V5.27366H1.76238C1.76238 4.35204 1.76238 3.69669 1.76238 3.51422C1.76238 2.64485 1.69688 2.23235 2.06629 1.55866C2.43588 0.885005 3.47838 -0.00543266 5.28147 0.0160048C7.085 0.0382236 7.84522 0.211724 7.84522 0.211724L7.45457 2.6885C7.45457 2.6885 6.30291 2.38441 5.73763 2.49279C5.1731 2.60119 4.84757 2.94894 4.84757 3.81794Z" fill="white"/>
</svg>
