<svg width="14" height="16" viewBox="0 0 14 16" fill="none" xmlns="http://www.w3.org/2000/svg">
<path d="M10.8836 3.358C10.2243 2.59144 9.87882 1.60104 9.90634 0.592723L7.4425 0.533203C7.4425 0.533203 7.4425 0.638323 7.4425 0.780083V10.6602C7.4769 13.786 2.53834 13.7102 2.92906 10.2551C3.16794 8.88136 4.6441 8.03592 5.95578 8.51384V5.99992C3.1001 5.50264 0.393862 7.7756 0.422342 10.6713C0.671942 16.9513 9.6793 16.9521 9.92922 10.6713C9.86634 10.4465 9.90154 6.26152 9.89258 5.90856C11.0129 6.60568 12.3164 6.95416 13.6366 6.90952V4.3132C12.4161 4.3132 11.4847 3.98872 10.8836 3.358Z" fill="white"/>
</svg>
