<svg width="19" height="19" viewBox="0 0 19 19" fill="none" xmlns="http://www.w3.org/2000/svg">
<path d="M7.71116 1.35577C8.3303 0.0270975 10.2195 0.0270965 10.8386 1.35577L12.2775 4.4436C12.5289 4.98311 13.0407 5.35492 13.6315 5.4273L17.0128 5.84158C18.4678 6.01983 19.0516 7.81657 17.9793 8.816L15.4872 11.1387C15.0518 11.5445 14.8563 12.1461 14.9701 12.7303L15.621 16.0742C15.901 17.513 14.3726 18.6235 13.0908 17.9125L10.1117 16.2601C9.59118 15.9714 8.95862 15.9714 8.43812 16.2601L5.45905 17.9125C4.17718 18.6235 2.64878 17.513 2.92885 16.0742L3.57975 12.7303C3.69347 12.1461 3.498 11.5445 3.06259 11.1387L0.570527 8.816C-0.50179 7.81657 0.0820053 6.01983 1.53698 5.84158L4.91832 5.4273C5.50911 5.35492 6.02086 4.98311 6.27227 4.4436L7.71116 1.35577Z" fill="#FFB547"/>
</svg>
